<mxfile host="app.diagrams.net" agent="Mozilla/5.0 (Windows NT 10.0; Win64; x64) AppleWebKit/537.36 (KHTML, like Gecko) Chrome/131.0.0.0 Safari/537.36" version="25.0.3">
  <diagram id="C5RBs43oDa-KdzZeNtuy" name="Page-1">
    <mxGraphModel dx="1102" dy="527" grid="1" gridSize="10" guides="1" tooltips="1" connect="1" arrows="1" fold="1" page="1" pageScale="1" pageWidth="1169" pageHeight="1654" math="0" shadow="0">
      <root>
        <mxCell id="WIyWlLk6GJQsqaUBKTNV-0" />
        <mxCell id="WIyWlLk6GJQsqaUBKTNV-1" parent="WIyWlLk6GJQsqaUBKTNV-0" />
        <mxCell id="WIyWlLk6GJQsqaUBKTNV-2" value="" style="rounded=0;html=1;jettySize=auto;orthogonalLoop=1;fontSize=11;endArrow=block;endFill=0;endSize=8;strokeWidth=1;shadow=0;labelBackgroundColor=none;edgeStyle=orthogonalEdgeStyle;" parent="WIyWlLk6GJQsqaUBKTNV-1" source="WIyWlLk6GJQsqaUBKTNV-3" target="WIyWlLk6GJQsqaUBKTNV-6" edge="1">
          <mxGeometry relative="1" as="geometry" />
        </mxCell>
        <mxCell id="WIyWlLk6GJQsqaUBKTNV-3" value="Lamp doesn&#39;t work" style="rounded=1;whiteSpace=wrap;html=1;fontSize=12;glass=0;strokeWidth=1;shadow=0;" parent="WIyWlLk6GJQsqaUBKTNV-1" vertex="1">
          <mxGeometry x="10" y="20" width="120" height="40" as="geometry" />
        </mxCell>
        <mxCell id="WIyWlLk6GJQsqaUBKTNV-4" value="Yes" style="rounded=0;html=1;jettySize=auto;orthogonalLoop=1;fontSize=11;endArrow=block;endFill=0;endSize=8;strokeWidth=1;shadow=0;labelBackgroundColor=none;edgeStyle=orthogonalEdgeStyle;" parent="WIyWlLk6GJQsqaUBKTNV-1" source="WIyWlLk6GJQsqaUBKTNV-6" target="WIyWlLk6GJQsqaUBKTNV-10" edge="1">
          <mxGeometry y="20" relative="1" as="geometry">
            <mxPoint as="offset" />
          </mxGeometry>
        </mxCell>
        <mxCell id="WIyWlLk6GJQsqaUBKTNV-5" value="No" style="edgeStyle=orthogonalEdgeStyle;rounded=0;html=1;jettySize=auto;orthogonalLoop=1;fontSize=11;endArrow=block;endFill=0;endSize=8;strokeWidth=1;shadow=0;labelBackgroundColor=none;" parent="WIyWlLk6GJQsqaUBKTNV-1" source="WIyWlLk6GJQsqaUBKTNV-6" target="WIyWlLk6GJQsqaUBKTNV-7" edge="1">
          <mxGeometry y="10" relative="1" as="geometry">
            <mxPoint as="offset" />
          </mxGeometry>
        </mxCell>
        <mxCell id="WIyWlLk6GJQsqaUBKTNV-6" value="Lamp&lt;br&gt;plugged in?" style="rhombus;whiteSpace=wrap;html=1;shadow=0;fontFamily=Helvetica;fontSize=12;align=center;strokeWidth=1;spacing=6;spacingTop=-4;" parent="WIyWlLk6GJQsqaUBKTNV-1" vertex="1">
          <mxGeometry x="20" y="110" width="100" height="80" as="geometry" />
        </mxCell>
        <mxCell id="WIyWlLk6GJQsqaUBKTNV-7" value="Plug in lamp" style="rounded=1;whiteSpace=wrap;html=1;fontSize=12;glass=0;strokeWidth=1;shadow=0;" parent="WIyWlLk6GJQsqaUBKTNV-1" vertex="1">
          <mxGeometry x="170" y="130" width="120" height="40" as="geometry" />
        </mxCell>
        <mxCell id="WIyWlLk6GJQsqaUBKTNV-8" value="No" style="rounded=0;html=1;jettySize=auto;orthogonalLoop=1;fontSize=11;endArrow=block;endFill=0;endSize=8;strokeWidth=1;shadow=0;labelBackgroundColor=none;edgeStyle=orthogonalEdgeStyle;" parent="WIyWlLk6GJQsqaUBKTNV-1" source="WIyWlLk6GJQsqaUBKTNV-10" target="WIyWlLk6GJQsqaUBKTNV-11" edge="1">
          <mxGeometry x="0.3333" y="20" relative="1" as="geometry">
            <mxPoint as="offset" />
          </mxGeometry>
        </mxCell>
        <mxCell id="WIyWlLk6GJQsqaUBKTNV-9" value="Yes" style="edgeStyle=orthogonalEdgeStyle;rounded=0;html=1;jettySize=auto;orthogonalLoop=1;fontSize=11;endArrow=block;endFill=0;endSize=8;strokeWidth=1;shadow=0;labelBackgroundColor=none;" parent="WIyWlLk6GJQsqaUBKTNV-1" source="WIyWlLk6GJQsqaUBKTNV-10" target="WIyWlLk6GJQsqaUBKTNV-12" edge="1">
          <mxGeometry y="10" relative="1" as="geometry">
            <mxPoint as="offset" />
          </mxGeometry>
        </mxCell>
        <mxCell id="WIyWlLk6GJQsqaUBKTNV-10" value="Bulb&lt;br&gt;burned out?" style="rhombus;whiteSpace=wrap;html=1;shadow=0;fontFamily=Helvetica;fontSize=12;align=center;strokeWidth=1;spacing=6;spacingTop=-4;" parent="WIyWlLk6GJQsqaUBKTNV-1" vertex="1">
          <mxGeometry x="20" y="230" width="100" height="80" as="geometry" />
        </mxCell>
        <mxCell id="WIyWlLk6GJQsqaUBKTNV-11" value="Repair Lamp" style="rounded=1;whiteSpace=wrap;html=1;fontSize=12;glass=0;strokeWidth=1;shadow=0;" parent="WIyWlLk6GJQsqaUBKTNV-1" vertex="1">
          <mxGeometry x="10" y="370" width="120" height="40" as="geometry" />
        </mxCell>
        <mxCell id="WIyWlLk6GJQsqaUBKTNV-12" value="Replace Bulb" style="rounded=1;whiteSpace=wrap;html=1;fontSize=12;glass=0;strokeWidth=1;shadow=0;" parent="WIyWlLk6GJQsqaUBKTNV-1" vertex="1">
          <mxGeometry x="170" y="250" width="120" height="40" as="geometry" />
        </mxCell>
        <mxCell id="ZuE81GLq9ZgMECM_-Afw-1" value="&lt;span style=&quot;font-family: Arial, sans-serif; white-space-collapse: preserve;&quot;&gt;&lt;font&gt;Connect the brushes with left and right brush motor handles.&lt;/font&gt;&lt;/span&gt;" style="rounded=1;whiteSpace=wrap;html=1;fontSize=12;glass=0;strokeWidth=1;shadow=0;" vertex="1" parent="WIyWlLk6GJQsqaUBKTNV-1">
          <mxGeometry x="450" y="352" width="170" height="50" as="geometry" />
        </mxCell>
        <mxCell id="ZuE81GLq9ZgMECM_-Afw-2" value="Connect Left and Right brush motor handles on the front side of Shreem SA." style="rounded=1;whiteSpace=wrap;html=1;fontSize=12;glass=0;strokeWidth=1;shadow=0;" vertex="1" parent="WIyWlLk6GJQsqaUBKTNV-1">
          <mxGeometry x="450" y="464" width="170" height="50" as="geometry" />
        </mxCell>
        <mxCell id="ZuE81GLq9ZgMECM_-Afw-4" value="Connect the XT30 connectors of brush motor handles with Shreem having proper polarity." style="rounded=1;whiteSpace=wrap;html=1;fontSize=12;glass=0;strokeWidth=1;shadow=0;" vertex="1" parent="WIyWlLk6GJQsqaUBKTNV-1">
          <mxGeometry x="450" y="574" width="170" height="50" as="geometry" />
        </mxCell>
        <mxCell id="ZuE81GLq9ZgMECM_-Afw-5" value="&lt;div&gt;Switching up/down the MAIN switch to enable/disable battery supply.&lt;/div&gt;" style="rounded=1;whiteSpace=wrap;html=1;fontSize=12;glass=0;strokeWidth=1;shadow=0;" vertex="1" parent="WIyWlLk6GJQsqaUBKTNV-1">
          <mxGeometry x="450" y="684" width="170" height="50" as="geometry" />
        </mxCell>
        <mxCell id="ZuE81GLq9ZgMECM_-Afw-6" value="&lt;div&gt;Press the power button to enable/disable power delivery to the control unit.&amp;nbsp;&lt;/div&gt;" style="rounded=1;whiteSpace=wrap;html=1;fontSize=12;glass=0;strokeWidth=1;shadow=0;" vertex="1" parent="WIyWlLk6GJQsqaUBKTNV-1">
          <mxGeometry x="680" y="660" width="170" height="50" as="geometry" />
        </mxCell>
        <mxCell id="ZuE81GLq9ZgMECM_-Afw-7" value="Shreem SA Battery removal" style="rounded=1;whiteSpace=wrap;html=1;fontSize=12;glass=0;strokeWidth=1;shadow=0;" vertex="1" parent="WIyWlLk6GJQsqaUBKTNV-1">
          <mxGeometry x="970" y="750" width="170" height="30" as="geometry" />
        </mxCell>
        <mxCell id="ZuE81GLq9ZgMECM_-Afw-9" value="&lt;div&gt;Long press the power button to turn ON/OFF the Radiomaster transmitter.&lt;/div&gt;" style="rounded=1;whiteSpace=wrap;html=1;fontSize=12;glass=0;strokeWidth=1;shadow=0;" vertex="1" parent="WIyWlLk6GJQsqaUBKTNV-1">
          <mxGeometry x="680" y="550" width="170" height="50" as="geometry" />
        </mxCell>
        <mxCell id="ZuE81GLq9ZgMECM_-Afw-10" value="Visually check the signal strength is displayed on the transmitter.This indicates Transmitter is binded with Receiver" style="rounded=1;whiteSpace=wrap;html=1;fontSize=12;glass=0;strokeWidth=1;shadow=0;" vertex="1" parent="WIyWlLk6GJQsqaUBKTNV-1">
          <mxGeometry x="660" y="440" width="240" height="50" as="geometry" />
        </mxCell>
        <mxCell id="ZuE81GLq9ZgMECM_-Afw-16" value="" style="endArrow=classic;html=1;rounded=0;exitX=0.5;exitY=1;exitDx=0;exitDy=0;entryX=0.5;entryY=0;entryDx=0;entryDy=0;" edge="1" parent="WIyWlLk6GJQsqaUBKTNV-1">
          <mxGeometry width="50" height="50" relative="1" as="geometry">
            <mxPoint x="535" y="300.9999999999999" as="sourcePoint" />
            <mxPoint x="535" y="350.9999999999999" as="targetPoint" />
          </mxGeometry>
        </mxCell>
        <mxCell id="ZuE81GLq9ZgMECM_-Afw-18" value="&lt;font style=&quot;font-size: 14px;&quot;&gt;Start&lt;/font&gt;" style="ellipse;whiteSpace=wrap;html=1;" vertex="1" parent="WIyWlLk6GJQsqaUBKTNV-1">
          <mxGeometry x="475" y="50" width="120" height="80" as="geometry" />
        </mxCell>
        <mxCell id="ZuE81GLq9ZgMECM_-Afw-19" value="&lt;span style=&quot;font-family: Arial, sans-serif; white-space-collapse: preserve;&quot;&gt;&lt;font&gt;First time setting up Shreem SA&lt;/font&gt;&lt;/span&gt;" style="rhombus;whiteSpace=wrap;html=1;" vertex="1" parent="WIyWlLk6GJQsqaUBKTNV-1">
          <mxGeometry x="470" y="180" width="130" height="120" as="geometry" />
        </mxCell>
        <mxCell id="ZuE81GLq9ZgMECM_-Afw-20" value="" style="endArrow=classic;html=1;rounded=0;exitX=0.5;exitY=1;exitDx=0;exitDy=0;" edge="1" parent="WIyWlLk6GJQsqaUBKTNV-1">
          <mxGeometry width="50" height="50" relative="1" as="geometry">
            <mxPoint x="534.41" y="129.9999999999999" as="sourcePoint" />
            <mxPoint x="534" y="180" as="targetPoint" />
          </mxGeometry>
        </mxCell>
        <mxCell id="ZuE81GLq9ZgMECM_-Afw-21" value="&lt;font style=&quot;font-size: 14px;&quot;&gt;YES&lt;/font&gt;" style="text;html=1;align=center;verticalAlign=middle;whiteSpace=wrap;rounded=0;" vertex="1" parent="WIyWlLk6GJQsqaUBKTNV-1">
          <mxGeometry x="535" y="320" width="60" height="30" as="geometry" />
        </mxCell>
        <mxCell id="ZuE81GLq9ZgMECM_-Afw-22" value="&lt;font style=&quot;font-size: 14px;&quot;&gt;NO&lt;/font&gt;" style="text;html=1;align=center;verticalAlign=middle;whiteSpace=wrap;rounded=0;" vertex="1" parent="WIyWlLk6GJQsqaUBKTNV-1">
          <mxGeometry x="410" y="210" width="60" height="30" as="geometry" />
        </mxCell>
        <mxCell id="ZuE81GLq9ZgMECM_-Afw-26" value="" style="endArrow=classic;html=1;rounded=0;exitX=0.5;exitY=1;exitDx=0;exitDy=0;entryX=0.5;entryY=0;entryDx=0;entryDy=0;" edge="1" parent="WIyWlLk6GJQsqaUBKTNV-1">
          <mxGeometry width="50" height="50" relative="1" as="geometry">
            <mxPoint x="535" y="402.9999999999999" as="sourcePoint" />
            <mxPoint x="535" y="463" as="targetPoint" />
          </mxGeometry>
        </mxCell>
        <mxCell id="ZuE81GLq9ZgMECM_-Afw-27" value="" style="endArrow=classic;html=1;rounded=0;exitX=0.5;exitY=1;exitDx=0;exitDy=0;entryX=0.5;entryY=0;entryDx=0;entryDy=0;" edge="1" parent="WIyWlLk6GJQsqaUBKTNV-1">
          <mxGeometry width="50" height="50" relative="1" as="geometry">
            <mxPoint x="535" y="513.9999999999999" as="sourcePoint" />
            <mxPoint x="535" y="574" as="targetPoint" />
          </mxGeometry>
        </mxCell>
        <mxCell id="ZuE81GLq9ZgMECM_-Afw-28" value="" style="endArrow=classic;html=1;rounded=0;exitX=0.5;exitY=1;exitDx=0;exitDy=0;entryX=0.5;entryY=0;entryDx=0;entryDy=0;" edge="1" parent="WIyWlLk6GJQsqaUBKTNV-1">
          <mxGeometry width="50" height="50" relative="1" as="geometry">
            <mxPoint x="535" y="623.9999999999999" as="sourcePoint" />
            <mxPoint x="535" y="684" as="targetPoint" />
          </mxGeometry>
        </mxCell>
        <mxCell id="ZuE81GLq9ZgMECM_-Afw-29" value="" style="endArrow=classic;html=1;rounded=0;exitX=0.5;exitY=1;exitDx=0;exitDy=0;entryX=0.5;entryY=0;entryDx=0;entryDy=0;" edge="1" parent="WIyWlLk6GJQsqaUBKTNV-1">
          <mxGeometry width="50" height="50" relative="1" as="geometry">
            <mxPoint x="534.41" y="733.9999999999999" as="sourcePoint" />
            <mxPoint x="534.41" y="794" as="targetPoint" />
          </mxGeometry>
        </mxCell>
        <mxCell id="ZuE81GLq9ZgMECM_-Afw-30" value="Shreem SA Battery is fully charged" style="rhombus;whiteSpace=wrap;html=1;" vertex="1" parent="WIyWlLk6GJQsqaUBKTNV-1">
          <mxGeometry x="470" y="794" width="130" height="120" as="geometry" />
        </mxCell>
        <mxCell id="ZuE81GLq9ZgMECM_-Afw-31" value="&lt;font style=&quot;font-size: 14px;&quot;&gt;YES&lt;/font&gt;" style="text;html=1;align=center;verticalAlign=middle;whiteSpace=wrap;rounded=0;" vertex="1" parent="WIyWlLk6GJQsqaUBKTNV-1">
          <mxGeometry x="600" y="829" width="60" height="30" as="geometry" />
        </mxCell>
        <mxCell id="ZuE81GLq9ZgMECM_-Afw-32" value="" style="endArrow=classic;html=1;rounded=0;exitX=0.5;exitY=1;exitDx=0;exitDy=0;entryX=0;entryY=0.5;entryDx=0;entryDy=0;" edge="1" parent="WIyWlLk6GJQsqaUBKTNV-1" target="ZuE81GLq9ZgMECM_-Afw-49">
          <mxGeometry width="50" height="50" relative="1" as="geometry">
            <mxPoint x="600" y="853.9999999999999" as="sourcePoint" />
            <mxPoint x="670" y="854" as="targetPoint" />
          </mxGeometry>
        </mxCell>
        <mxCell id="ZuE81GLq9ZgMECM_-Afw-37" value="" style="endArrow=none;html=1;rounded=0;entryX=0;entryY=0.5;entryDx=0;entryDy=0;" edge="1" parent="WIyWlLk6GJQsqaUBKTNV-1" target="ZuE81GLq9ZgMECM_-Afw-19">
          <mxGeometry width="50" height="50" relative="1" as="geometry">
            <mxPoint x="400" y="240" as="sourcePoint" />
            <mxPoint x="580" y="310" as="targetPoint" />
          </mxGeometry>
        </mxCell>
        <mxCell id="ZuE81GLq9ZgMECM_-Afw-38" value="" style="endArrow=none;html=1;rounded=0;" edge="1" parent="WIyWlLk6GJQsqaUBKTNV-1">
          <mxGeometry width="50" height="50" relative="1" as="geometry">
            <mxPoint x="400" y="710" as="sourcePoint" />
            <mxPoint x="400" y="240" as="targetPoint" />
          </mxGeometry>
        </mxCell>
        <mxCell id="ZuE81GLq9ZgMECM_-Afw-39" value="" style="endArrow=classic;html=1;rounded=0;entryX=0;entryY=0.5;entryDx=0;entryDy=0;" edge="1" parent="WIyWlLk6GJQsqaUBKTNV-1" target="ZuE81GLq9ZgMECM_-Afw-5">
          <mxGeometry width="50" height="50" relative="1" as="geometry">
            <mxPoint x="400" y="709" as="sourcePoint" />
            <mxPoint x="580" y="660" as="targetPoint" />
          </mxGeometry>
        </mxCell>
        <mxCell id="ZuE81GLq9ZgMECM_-Afw-40" value="&lt;div&gt;Charge the battery&lt;/div&gt;" style="rounded=1;whiteSpace=wrap;html=1;fontSize=12;glass=0;strokeWidth=1;shadow=0;" vertex="1" parent="WIyWlLk6GJQsqaUBKTNV-1">
          <mxGeometry x="360" y="827" width="70" height="50" as="geometry" />
        </mxCell>
        <mxCell id="ZuE81GLq9ZgMECM_-Afw-41" value="" style="endArrow=classic;html=1;rounded=0;entryX=1;entryY=0.5;entryDx=0;entryDy=0;" edge="1" parent="WIyWlLk6GJQsqaUBKTNV-1" target="ZuE81GLq9ZgMECM_-Afw-40">
          <mxGeometry width="50" height="50" relative="1" as="geometry">
            <mxPoint x="470" y="852" as="sourcePoint" />
            <mxPoint x="520" y="802" as="targetPoint" />
          </mxGeometry>
        </mxCell>
        <mxCell id="ZuE81GLq9ZgMECM_-Afw-42" value="&lt;font style=&quot;font-size: 14px;&quot;&gt;NO&lt;/font&gt;" style="text;html=1;align=center;verticalAlign=middle;whiteSpace=wrap;rounded=0;" vertex="1" parent="WIyWlLk6GJQsqaUBKTNV-1">
          <mxGeometry x="420" y="820" width="60" height="30" as="geometry" />
        </mxCell>
        <mxCell id="ZuE81GLq9ZgMECM_-Afw-43" value="" style="endArrow=none;html=1;rounded=0;" edge="1" parent="WIyWlLk6GJQsqaUBKTNV-1">
          <mxGeometry width="50" height="50" relative="1" as="geometry">
            <mxPoint x="400" y="829" as="sourcePoint" />
            <mxPoint x="400" y="710" as="targetPoint" />
          </mxGeometry>
        </mxCell>
        <mxCell id="ZuE81GLq9ZgMECM_-Afw-48" value="" style="endArrow=classic;html=1;rounded=0;exitX=0.5;exitY=1;exitDx=0;exitDy=0;" edge="1" parent="WIyWlLk6GJQsqaUBKTNV-1">
          <mxGeometry width="50" height="50" relative="1" as="geometry">
            <mxPoint x="760" y="659.9999999999999" as="sourcePoint" />
            <mxPoint x="760.48" y="601" as="targetPoint" />
          </mxGeometry>
        </mxCell>
        <mxCell id="ZuE81GLq9ZgMECM_-Afw-49" value="Status of LED of Front and Back Sensors are OK&amp;nbsp;" style="rhombus;whiteSpace=wrap;html=1;" vertex="1" parent="WIyWlLk6GJQsqaUBKTNV-1">
          <mxGeometry x="675" y="769" width="170" height="170" as="geometry" />
        </mxCell>
        <mxCell id="ZuE81GLq9ZgMECM_-Afw-50" value="" style="endArrow=classic;html=1;rounded=0;exitX=0.5;exitY=1;exitDx=0;exitDy=0;" edge="1" parent="WIyWlLk6GJQsqaUBKTNV-1">
          <mxGeometry width="50" height="50" relative="1" as="geometry">
            <mxPoint x="759.52" y="768.9999999999999" as="sourcePoint" />
            <mxPoint x="760" y="710" as="targetPoint" />
          </mxGeometry>
        </mxCell>
        <mxCell id="ZuE81GLq9ZgMECM_-Afw-51" value="&lt;font style=&quot;font-size: 14px;&quot;&gt;YES&lt;/font&gt;" style="text;html=1;align=center;verticalAlign=middle;whiteSpace=wrap;rounded=0;" vertex="1" parent="WIyWlLk6GJQsqaUBKTNV-1">
          <mxGeometry x="700" y="734" width="60" height="30" as="geometry" />
        </mxCell>
        <mxCell id="ZuE81GLq9ZgMECM_-Afw-52" value="&lt;font style=&quot;font-size: 14px;&quot;&gt;NO&lt;/font&gt;" style="text;html=1;align=center;verticalAlign=middle;whiteSpace=wrap;rounded=0;" vertex="1" parent="WIyWlLk6GJQsqaUBKTNV-1">
          <mxGeometry x="840" y="820" width="60" height="30" as="geometry" />
        </mxCell>
        <mxCell id="ZuE81GLq9ZgMECM_-Afw-53" value="" style="endArrow=classic;html=1;rounded=0;entryX=0;entryY=0.5;entryDx=0;entryDy=0;exitX=0.993;exitY=0.5;exitDx=0;exitDy=0;exitPerimeter=0;" edge="1" parent="WIyWlLk6GJQsqaUBKTNV-1" source="ZuE81GLq9ZgMECM_-Afw-49">
          <mxGeometry width="50" height="50" relative="1" as="geometry">
            <mxPoint x="840" y="853.52" as="sourcePoint" />
            <mxPoint x="890" y="853.52" as="targetPoint" />
          </mxGeometry>
        </mxCell>
        <mxCell id="ZuE81GLq9ZgMECM_-Afw-54" value="&lt;div&gt;Check and tune the sensors&lt;/div&gt;" style="rounded=1;whiteSpace=wrap;html=1;fontSize=12;glass=0;strokeWidth=1;shadow=0;" vertex="1" parent="WIyWlLk6GJQsqaUBKTNV-1">
          <mxGeometry x="890" y="827" width="70" height="50" as="geometry" />
        </mxCell>
        <mxCell id="ZuE81GLq9ZgMECM_-Afw-55" value="" style="endArrow=classic;html=1;rounded=0;" edge="1" parent="WIyWlLk6GJQsqaUBKTNV-1">
          <mxGeometry width="50" height="50" relative="1" as="geometry">
            <mxPoint x="760" y="970" as="sourcePoint" />
            <mxPoint x="760" y="939" as="targetPoint" />
            <Array as="points">
              <mxPoint x="760" y="960" />
            </Array>
          </mxGeometry>
        </mxCell>
        <mxCell id="ZuE81GLq9ZgMECM_-Afw-56" value="" style="endArrow=none;html=1;rounded=0;" edge="1" parent="WIyWlLk6GJQsqaUBKTNV-1">
          <mxGeometry width="50" height="50" relative="1" as="geometry">
            <mxPoint x="920" y="970" as="sourcePoint" />
            <mxPoint x="920" y="877" as="targetPoint" />
          </mxGeometry>
        </mxCell>
        <mxCell id="ZuE81GLq9ZgMECM_-Afw-57" value="" style="endArrow=none;html=1;rounded=0;" edge="1" parent="WIyWlLk6GJQsqaUBKTNV-1">
          <mxGeometry width="50" height="50" relative="1" as="geometry">
            <mxPoint x="760" y="970" as="sourcePoint" />
            <mxPoint x="920" y="970" as="targetPoint" />
          </mxGeometry>
        </mxCell>
        <mxCell id="ZuE81GLq9ZgMECM_-Afw-58" value="" style="endArrow=classic;html=1;rounded=0;exitX=0.5;exitY=1;exitDx=0;exitDy=0;" edge="1" parent="WIyWlLk6GJQsqaUBKTNV-1">
          <mxGeometry width="50" height="50" relative="1" as="geometry">
            <mxPoint x="760" y="548.9999999999999" as="sourcePoint" />
            <mxPoint x="760.48" y="490" as="targetPoint" />
          </mxGeometry>
        </mxCell>
      </root>
    </mxGraphModel>
  </diagram>
</mxfile>
